<?xml version="1.0" encoding="UTF-8" standalone="no"?>
<!DOCTYPE svg PUBLIC "-//W3C//DTD SVG 1.1//EN" "http://www.w3.org/Graphics/SVG/1.1/DTD/svg11.dtd">
<svg width="100%" height="100%" viewBox="0 0 230 42" version="1.1" xmlns="http://www.w3.org/2000/svg" xmlns:xlink="http://www.w3.org/1999/xlink" xml:space="preserve" xmlns:serif="http://www.serif.com/" style="fill-rule:evenodd;clip-rule:evenodd;stroke-linejoin:round;stroke-miterlimit:2;">
    <g>
        <path d="M8.354,0C8.354,0 0,0 0,8.354L0,33.419C0,33.419 0,41.775 8.354,41.775L33.418,41.775C33.418,41.775 41.773,41.775 41.773,33.419L41.773,8.354C41.773,8.354 41.773,0 33.418,0L8.354,0Z" style="fill:#231f20;fill-rule:nonzero;"/>
        <path d="M8.354,0C8.354,0 0,0 0,8.354L0,33.419C0,33.419 0,41.775 8.354,41.775L33.418,41.775C33.418,41.775 41.773,41.775 41.773,33.419L41.773,8.354C41.773,8.354 41.773,0 33.418,0L8.354,0Z" style="fill:#231f20;fill-rule:nonzero;"/>
        <path d="M17.199,8.777L13.83,8.777C12.636,8.777 10.567,9.944 10.567,12.358L10.567,17.345C10.567,19.123 8.975,19.733 8.127,19.733L8.127,22.041C8.975,22.041 10.567,22.624 10.567,24.243L10.567,29.415C10.567,31.829 12.636,32.996 13.83,32.996L17.199,32.996L17.199,30.025L15.766,30.025C14.493,30.025 14.335,28.965 14.335,28.088L14.335,23.844C14.335,21.616 12.503,21.006 11.708,20.926L11.708,20.847C12.503,20.741 14.335,20.317 14.335,17.717L14.335,13.685C14.335,12.836 14.493,11.747 15.766,11.747L17.199,11.747L17.199,8.777ZM24.573,32.996L27.942,32.996C29.136,32.996 31.205,31.829 31.205,29.415L31.205,24.243C31.205,22.624 32.796,22.041 33.646,22.041L33.646,19.733C32.796,19.733 31.205,19.123 31.205,17.345L31.205,12.358C31.205,9.944 29.136,8.777 27.942,8.777L24.573,8.777L24.573,11.747L26.005,11.747C27.279,11.747 27.439,12.836 27.439,13.685L27.439,17.717C27.439,20.317 29.268,20.741 30.064,20.847L30.064,20.926C29.268,21.006 27.439,21.616 27.439,23.844L27.439,28.088C27.439,28.965 27.279,30.025 26.005,30.025L24.573,30.025L24.573,32.996Z" style="fill:#fff;fill-rule:nonzero;"/>
        <path d="M68.183,27.169L67.837,25.551C67.785,25.286 67.599,25.205 67.44,25.205C67.387,25.205 67.307,25.233 67.28,25.233C66.67,25.391 65.503,25.658 64.257,25.658C61.525,25.658 60.729,24.463 60.729,21.148C60.729,17.859 61.525,16.691 64.257,16.691C65.503,16.691 66.67,16.956 67.28,17.115C67.307,17.115 67.387,17.142 67.44,17.142C67.599,17.142 67.785,17.063 67.837,16.824L68.183,15.179L68.183,15.046C68.183,14.834 68.076,14.702 67.864,14.595C67.228,14.277 65.265,13.906 63.302,13.906C58.05,13.906 56.617,16.32 56.617,21.175C56.617,26.002 58.05,28.416 63.302,28.416C65.265,28.416 67.228,28.071 67.864,27.725C68.076,27.621 68.183,27.514 68.183,27.302L68.183,27.169ZM82.613,21.227C82.613,17.115 81.844,13.906 75.875,13.906C69.88,13.906 69.138,17.115 69.138,21.227C69.138,25.312 69.88,28.521 75.875,28.521C81.844,28.521 82.613,25.312 82.613,21.227ZM78.448,21.227C78.448,24.331 78.315,25.762 75.875,25.762C73.409,25.762 73.302,24.331 73.302,21.227C73.302,18.097 73.409,16.665 75.875,16.665C78.315,16.665 78.448,18.097 78.448,21.227ZM97.017,25.843L97.017,8.681C97.017,8.362 96.831,8.229 96.565,8.229L96.406,8.229L93.409,8.733C93.037,8.786 92.905,8.998 92.905,9.37L92.905,12.766L93.197,14.383C92.905,14.331 91.472,13.906 89.616,13.906C84.974,13.906 83.886,16.744 83.886,21.334C83.886,26.878 85.69,28.521 90.889,28.521C92.534,28.521 94.178,28.284 95.452,27.911C96.937,27.488 97.017,26.558 97.017,25.843ZM92.905,25.498C92.905,25.498 91.951,25.762 90.915,25.762C88.847,25.762 88.024,25.339 88.024,21.094C88.024,17.063 88.74,16.665 90.756,16.665C91.738,16.665 92.905,16.902 92.905,16.902L92.905,25.498ZM112.083,20.989C112.083,18.654 111.737,16.902 110.755,15.71C109.748,14.517 108.103,13.906 105.477,13.906C100.331,13.906 98.793,16.107 98.793,21.28C98.793,26.612 100.994,28.521 106.167,28.521C108.421,28.521 110.251,27.992 111.101,27.646C111.26,27.567 111.392,27.435 111.392,27.196C111.392,27.169 111.392,27.117 111.366,27.036L111.021,25.577C110.941,25.286 110.782,25.154 110.596,25.154C110.57,25.154 110.544,25.154 110.517,25.179C109.827,25.365 108.474,25.789 106.856,25.789C105.556,25.789 104.655,25.604 103.991,25.205C103.222,24.702 102.851,24.066 102.851,22.952L111.419,22.952C111.923,22.952 112.056,22.606 112.056,22.261C112.056,21.89 112.083,21.307 112.083,20.989ZM108.05,20.484L102.851,20.484C102.878,19.688 102.878,18.999 103.01,18.336C103.249,17.142 103.859,16.611 105.53,16.611C106.856,16.611 107.573,17.063 107.891,18.442C107.997,19.026 108.05,19.61 108.05,20.325L108.05,20.484ZM130.464,25.683C130.464,25.445 130.305,25.286 130.092,25.286L127.813,25.286L127.813,14.569C127.813,14.41 127.651,14.251 127.493,14.251L121.207,14.251C121.048,14.251 120.917,14.41 120.888,14.49L114.656,24.595C114.603,24.702 114.603,24.888 114.603,24.941L114.603,27.779C114.603,28.018 114.734,28.178 114.947,28.178L123.78,28.178L123.78,33.19C123.78,33.429 123.938,33.588 124.151,33.588L127.493,33.588C127.68,33.588 127.838,33.429 127.838,33.19L127.838,28.178L130.092,28.178C130.305,28.178 130.464,28.018 130.464,27.779L130.464,25.683ZM123.806,25.286L118.13,25.286L122.983,16.956L123.806,16.956L123.806,25.286ZM154.472,14.914L154.472,14.755C154.472,14.463 154.284,14.251 153.968,14.251L151.075,14.251C150.759,14.251 150.546,14.331 150.49,14.702L148.847,25.63L148.13,25.63L146.355,15.391C146.3,15.126 146.116,14.967 145.851,14.967L140.837,14.967C140.572,14.967 140.385,15.126 140.333,15.391L138.609,25.63L137.893,25.63L136.087,14.702C136.007,14.331 135.823,14.251 135.477,14.251L132.427,14.251C132.11,14.251 131.949,14.463 131.949,14.755L131.949,14.914L134.79,27.753C134.841,27.992 135,28.178 135.264,28.178L140.837,28.178C141.102,28.178 141.286,27.992 141.315,27.753L143.223,17.964L143.249,17.964L145.08,27.753C145.134,27.992 145.319,28.178 145.583,28.178L151.156,28.178C151.42,28.178 151.579,27.992 151.633,27.753L154.472,14.914ZM168.025,25.391L168.025,18.097C168.025,16.611 167.654,15.391 166.327,14.675C165.452,14.171 164.154,13.906 162.298,13.906C159.456,13.906 156.964,14.622 156.38,14.861C156.247,14.914 156.063,15.02 156.063,15.259C156.063,15.312 156.063,15.338 156.089,15.391L156.486,17.222C156.512,17.381 156.619,17.46 156.779,17.46C156.832,17.46 156.912,17.434 156.964,17.407C157.681,17.248 159.696,16.691 161.419,16.691C162.298,16.691 162.933,16.771 163.305,16.956C163.86,17.222 163.941,17.673 163.941,18.389L163.941,19.105L159.324,19.848C157.39,20.139 155.214,20.59 155.214,23.986C155.214,28.124 158.607,28.521 161.687,28.521C163.225,28.521 164.471,28.389 165.452,28.15C167.282,27.753 168.025,27.408 168.025,25.391ZM163.967,25.658C163.622,25.762 162.772,25.948 161.791,25.948C160.732,25.948 159.246,25.789 159.246,23.933C159.246,22.342 160.122,22.155 161.129,21.996L163.967,21.546L163.967,25.658ZM178.292,16.426L178.292,14.49C178.292,14.251 178.185,14.119 178.105,14.065C177.947,13.958 177.866,13.932 177.575,13.932L177.337,13.932C176.461,13.958 175.506,14.091 174.763,14.197C173.624,14.357 172.348,14.517 171.554,14.808C170.731,15.126 170.359,15.418 170.359,16.187L170.359,27.779C170.359,28.018 170.598,28.178 170.785,28.178L174.021,28.178C174.285,28.178 174.444,28.018 174.444,27.779L174.444,17.248C174.895,17.142 176.275,16.956 177.814,16.956C178.266,16.956 178.292,16.717 178.292,16.426ZM191.927,25.843L191.927,8.681C191.927,8.362 191.74,8.229 191.474,8.229L191.317,8.229L188.317,8.733C187.946,8.786 187.814,8.998 187.814,9.37L187.814,12.766L188.107,14.383C187.814,14.331 186.383,13.906 184.527,13.906C179.884,13.906 178.795,16.744 178.795,21.334C178.795,26.878 180.601,28.521 185.798,28.521C187.442,28.521 189.088,28.284 190.361,27.911C191.846,27.488 191.927,26.558 191.927,25.843ZM187.814,25.498C187.814,25.498 186.861,25.762 185.824,25.762C183.755,25.762 182.935,25.339 182.935,21.094C182.935,17.063 183.648,16.665 185.667,16.665C186.648,16.665 187.814,16.902 187.814,16.902L187.814,25.498ZM199.537,25.179C199.537,24.941 199.327,24.729 199.007,24.729L195.85,24.729C195.533,24.729 195.32,24.941 195.32,25.179L195.32,27.725C195.32,27.992 195.533,28.178 195.85,28.178L199.007,28.178C199.327,28.178 199.537,27.992 199.537,27.725L199.537,25.179ZM211.174,27.914L211.174,21.351C211.174,19.23 209.954,18.664 207.745,18.664C206.611,18.664 205.127,18.877 204.222,19.125C203.235,19.388 202.898,19.618 202.898,20.29L202.898,27.914C202.898,28.071 203.022,28.178 203.2,28.178L205.003,28.178C205.161,28.178 205.267,28.071 205.267,27.914L205.267,20.59C205.267,20.59 206.416,20.29 207.478,20.29C208.417,20.29 208.805,20.643 208.805,21.67L208.805,27.914C208.805,28.071 208.929,28.178 209.09,28.178L210.909,28.178C211.067,28.178 211.174,28.071 211.174,27.914ZM221.411,23.369C221.411,21.899 221.216,20.767 220.614,19.971C219.978,19.125 218.882,18.664 217.097,18.664C213.649,18.664 212.731,20.254 212.731,23.58C212.731,27.047 214.092,28.407 217.558,28.407C218.953,28.407 220.157,28.088 220.759,27.841C220.882,27.787 220.969,27.717 220.969,27.576C220.969,27.539 220.951,27.506 220.951,27.488L220.721,26.587C220.669,26.41 220.58,26.34 220.473,26.34C220.439,26.34 220.422,26.34 220.387,26.357C219.838,26.517 219.006,26.781 217.909,26.781C216.956,26.781 216.282,26.621 215.822,26.25C215.347,25.878 215.117,25.436 215.117,24.622L221.04,24.622C221.305,24.622 221.411,24.409 221.411,24.216L221.411,23.369ZM219.06,23.103L215.097,23.12C215.117,22.537 215.117,22.023 215.24,21.528C215.433,20.643 215.929,20.29 217.114,20.29C218.156,20.29 218.689,20.608 218.919,21.581C219.043,22.058 219.06,22.537 219.06,23.103ZM228.504,27.646L228.291,26.641C228.274,26.517 228.201,26.446 228.095,26.446L228.026,26.446C227.724,26.517 227.211,26.604 226.682,26.604C225.761,26.604 225.444,26.286 225.444,25.508L225.444,20.608L227.972,20.608C228.132,20.608 228.236,20.52 228.236,20.36L228.236,19.159C228.236,19.001 228.132,18.894 227.972,18.894L225.444,18.894L225.444,16.045C225.444,15.852 225.355,15.764 225.197,15.764L225.107,15.764L223.374,16.082C223.182,16.134 223.075,16.24 223.075,16.453L223.075,25.561C223.075,27.559 224.083,28.336 226.098,28.336C227.229,28.336 228.008,28.088 228.308,28C228.449,27.965 228.521,27.859 228.521,27.735C228.521,27.699 228.504,27.682 228.504,27.646Z" style="fill:#231f20;fill-rule:nonzero;"/>
    </g>
</svg>
