<?xml version="1.0" encoding="UTF-8" standalone="no"?>
<!DOCTYPE svg PUBLIC "-//W3C//DTD SVG 1.1//EN" "http://www.w3.org/Graphics/SVG/1.1/DTD/svg11.dtd">
<svg width="100%" height="100%" viewBox="0 0 180 180" version="1.1" xmlns="http://www.w3.org/2000/svg" xmlns:xlink="http://www.w3.org/1999/xlink" xml:space="preserve" xmlns:serif="http://www.serif.com/" style="fill-rule:evenodd;clip-rule:evenodd;stroke-linejoin:round;stroke-miterlimit:2;">
    <path d="M40.796,8C40.796,8 8,8 8,40.798L8,139.197C8,139.197 8,172 40.796,172L139.198,172C139.198,172 172,172 172,139.197L172,40.798C172,40.798 172,8 139.198,8L40.796,8Z" style="fill:#231f20;fill-opacity:0.96;fill-rule:nonzero;"/>
    <path d="M75.521,42.458L62.295,42.458C57.609,42.458 49.486,47.04 49.486,56.517L49.486,76.095C49.486,83.075 43.237,85.47 39.908,85.47L39.908,94.53C43.237,94.53 49.486,96.818 49.486,103.173L49.486,123.478C49.486,132.954 57.609,137.536 62.295,137.536L75.521,137.536L75.521,125.873L69.898,125.873C64.899,125.873 64.277,121.71 64.277,118.271L64.277,101.608C64.277,92.861 57.088,90.466 53.964,90.153L53.964,89.841C57.088,89.424 64.277,87.761 64.277,77.553L64.277,61.727C64.277,58.391 64.899,54.119 69.898,54.119L75.521,54.119L75.521,42.458ZM104.473,137.536L117.699,137.536C122.388,137.536 130.508,132.954 130.508,123.478L130.508,103.173C130.508,96.818 136.757,94.53 140.092,94.53L140.092,85.47C136.757,85.47 130.508,83.075 130.508,76.095L130.508,56.517C130.508,47.04 122.388,42.458 117.699,42.458L104.473,42.458L104.473,54.119L110.096,54.119C115.095,54.119 115.723,58.391 115.723,61.727L115.723,77.553C115.723,87.761 122.906,89.424 126.03,89.841L126.03,90.153C122.906,90.466 115.723,92.861 115.723,101.608L115.723,118.271C115.723,121.71 115.095,125.873 110.096,125.873L104.473,125.873L104.473,137.536Z" style="fill:#fff;fill-rule:nonzero;"/>
</svg>
